<svg xmlns="http://www.w3.org/2000/svg" xmlns:xlink="http://www.w3.org/1999/xlink" id="body_1" preserveAspectRatio="xMinYMin meet" viewBox="0 0 793 1123"><defs><clipPath id="1"><path d="M0 842L0 -0.03997803L0 -0.03997803L595.56 -0.03997803L595.56 -0.03997803L595.56 842L595.56 842L0 842z" /></clipPath><clipPath id="2"><path d="M33.6 121.78L190.61 121.78L190.61 121.78L190.61 -0.03997803L190.61 -0.03997803L33.6 -0.03997803z" /></clipPath><clipPath id="3"><path d="M33.6 121.78L190.61 121.78L190.61 121.78L190.61 -0.03997803L190.61 -0.03997803L33.6 -0.03997803z" /></clipPath><clipPath id="4"><path d="M33.6 121.78L190.61 121.78L190.61 121.78L190.61 -0.03997803L190.61 -0.03997803L33.6 -0.03997803z" /></clipPath><clipPath id="5"><path d="M33.6 121.78L190.61 121.78L190.61 121.78L190.61 -0.03997803L190.61 -0.03997803L33.6 -0.03997803z" /></clipPath><clipPath id="6"><path d="M33.6 121.78L190.61 121.78L190.61 121.78L190.61 -0.03997803L190.61 -0.03997803L33.6 -0.03997803z" /></clipPath><clipPath id="7"><path d="M33.6 121.78L190.61 121.78L190.61 121.78L190.61 -0.03997803L190.61 -0.03997803L33.6 -0.03997803z" /></clipPath><clipPath id="8"><path d="M190.61 121.78L430.66 121.78L430.66 121.78L430.66 -0.03997803L430.66 -0.03997803L190.61 -0.03997803z" /></clipPath><clipPath id="9"><path d="M190.61 121.78L430.66 121.78L430.66 121.78L430.66 -0.03997803L430.66 -0.03997803L190.61 -0.03997803z" /></clipPath><clipPath id="10"><path d="M33.6 142.66L190.61 142.66L190.61 142.66L190.61 122.5L190.61 122.5L33.6 122.5z" /></clipPath><clipPath id="11"><path d="M33.6 142.66L190.61 142.66L190.61 142.66L190.61 122.5L190.61 122.5L33.6 122.5z" /></clipPath><clipPath id="12"><path d="M33.6 142.66L190.61 142.66L190.61 142.66L190.61 122.5L190.61 122.5L33.6 122.5z" /></clipPath><clipPath id="13"><path d="M33.6 142.66L190.61 142.66L190.61 142.66L190.61 122.5L190.61 122.5L33.6 122.5z" /></clipPath><clipPath id="14"><path d="M33.6 142.66L190.61 142.66L190.61 142.66L190.61 122.5L190.61 122.5L33.6 122.5z" /></clipPath><clipPath id="15"><path d="M33.6 142.66L190.61 142.66L190.61 142.66L190.61 122.5L190.61 122.5L33.6 122.5z" /></clipPath><clipPath id="16"><path d="M190.61 142.66L266.33 142.66L266.33 142.66L266.33 122.5L266.33 122.5L190.61 122.5z" /></clipPath><clipPath id="17"><path d="M190.61 142.66L266.33 142.66L266.33 142.66L266.33 122.5L266.33 122.5L190.61 122.5z" /></clipPath><clipPath id="18"><path d="M190.61 142.66L266.33 142.66L266.33 142.66L266.33 122.5L266.33 122.5L190.61 122.5z" /></clipPath><clipPath id="19"><path d="M266.33 142.66L430.66 142.66L430.66 142.66L430.66 122.5L430.66 122.5L266.33 122.5z" /></clipPath><clipPath id="20"><path d="M266.33 142.66L430.66 142.66L430.66 142.66L430.66 122.5L430.66 122.5L266.33 122.5z" /></clipPath><clipPath id="21"><path d="M266.33 142.66L430.66 142.66L430.66 142.66L430.66 122.5L430.66 122.5L266.33 122.5z" /></clipPath><clipPath id="22"><path d="M266.33 142.66L430.66 142.66L430.66 142.66L430.66 122.5L430.66 122.5L266.33 122.5z" /></clipPath><clipPath id="23"><path d="M266.33 142.66L430.66 142.66L430.66 142.66L430.66 122.5L430.66 122.5L266.33 122.5z" /></clipPath><clipPath id="24"><path d="M33.6 164.14L190.61 164.14L190.61 164.14L190.61 143.38L190.61 143.38L33.6 143.38z" /></clipPath><clipPath id="25"><path d="M33.6 164.14L190.61 164.14L190.61 164.14L190.61 143.38L190.61 143.38L33.6 143.38z" /></clipPath><clipPath id="26"><path d="M190.61 164.14L266.33 164.14L266.33 164.14L266.33 143.38L266.33 143.38L190.61 143.38z" /></clipPath><clipPath id="27"><path d="M190.61 164.14L266.33 164.14L266.33 164.14L266.33 143.38L266.33 143.38L190.61 143.38z" /></clipPath><clipPath id="28"><path d="M266.33 164.14L430.66 164.14L430.66 164.14L430.66 143.38L430.66 143.38L266.33 143.38z" /></clipPath><clipPath id="29"><path d="M266.33 164.14L430.66 164.14L430.66 164.14L430.66 143.38L430.66 143.38L266.33 143.38z" /></clipPath><clipPath id="30"><path d="M8.875E-06 842L595.56 842L595.56 842L595.56 -0.03997803L595.56 -0.03997803L8.875E-06 -0.03997803z" /></clipPath><clipPath id="31"><path d="M31.8 222.94L43.08 222.94L43.08 222.94L43.08 203.5L43.08 203.5L31.8 203.5z" /></clipPath><clipPath id="32"><path d="M31.8 222.94L43.08 222.94L43.08 222.94L43.08 203.5L43.08 203.5L31.8 203.5z" /></clipPath><clipPath id="33"><path d="M43.08 222.94L127.104 222.94L127.104 222.94L127.104 203.5L127.104 203.5L43.08 203.5z" /></clipPath><clipPath id="34"><path d="M43.08 222.94L127.104 222.94L127.104 222.94L127.104 203.5L127.104 203.5L43.08 203.5z" /></clipPath><clipPath id="35"><path d="M43.08 222.94L127.104 222.94L127.104 222.94L127.104 203.5L127.104 203.5L43.08 203.5z" /></clipPath><clipPath id="36"><path d="M127.1 222.94L559.68 222.94L559.68 222.94L559.68 203.5L559.68 203.5L127.1 203.5z" /></clipPath><clipPath id="37"><path d="M127.1 222.94L559.68 222.94L559.68 222.94L559.68 203.5L559.68 203.5L127.1 203.5z" /></clipPath><clipPath id="38"><path d="M31.8 306.37L42.36 306.37L42.36 306.37L42.36 223.666L42.36 223.666L31.8 223.666z" /></clipPath><clipPath id="39"><path d="M31.8 306.37L42.36 306.37L42.36 306.37L42.36 223.666L42.36 223.666L31.8 223.666z" /></clipPath><clipPath id="40"><path d="M43.8 306.37L559.68 306.37L559.68 306.37L559.68 223.666L559.68 223.666L43.8 223.666z" /></clipPath><clipPath id="41"><path d="M43.8 306.37L559.68 306.37L559.68 306.37L559.68 223.666L559.68 223.666L43.8 223.666z" /></clipPath><clipPath id="42"><path d="M43.8 306.37L559.68 306.37L559.68 306.37L559.68 223.666L559.68 223.666L43.8 223.666z" /></clipPath><clipPath id="43"><path d="M43.8 306.37L559.68 306.37L559.68 306.37L559.68 223.666L559.68 223.666L43.8 223.666z" /></clipPath><clipPath id="44"><path d="M43.8 306.37L559.68 306.37L559.68 306.37L559.68 223.666L559.68 223.666L43.8 223.666z" /></clipPath><clipPath id="45"><path d="M43.8 306.37L559.68 306.37L559.68 306.37L559.68 223.666L559.68 223.666L43.8 223.666z" /></clipPath><clipPath id="46"><path d="M43.8 306.37L559.68 306.37L559.68 306.37L559.68 223.666L559.68 223.666L43.8 223.666z" /></clipPath><clipPath id="47"><path d="M43.8 306.37L559.68 306.37L559.68 306.37L559.68 223.666L559.68 223.666L43.8 223.666z" /></clipPath><clipPath id="48"><path d="M43.8 306.37L559.68 306.37L559.68 306.37L559.68 223.666L559.68 223.666L43.8 223.666z" /></clipPath><clipPath id="49"><path d="M43.8 306.37L559.68 306.37L559.68 306.37L559.68 223.666L559.68 223.666L43.8 223.666z" /></clipPath><clipPath id="50"><path d="M43.8 306.37L559.68 306.37L559.68 306.37L559.68 223.666L559.68 223.666L43.8 223.666z" /></clipPath><clipPath id="51"><path d="M43.8 306.37L559.68 306.37L559.68 306.37L559.68 223.666L559.68 223.666L43.8 223.666z" /></clipPath><clipPath id="52"><path d="M43.8 306.37L559.68 306.37L559.68 306.37L559.68 223.666L559.68 223.666L43.8 223.666z" /></clipPath><clipPath id="53"><path d="M43.8 306.37L559.68 306.37L559.68 306.37L559.68 223.666L559.68 223.666L43.8 223.666z" /></clipPath><clipPath id="54"><path d="M43.8 306.37L559.68 306.37L559.68 306.37L559.68 223.666L559.68 223.666L43.8 223.666z" /></clipPath><clipPath id="55"><path d="M43.8 306.37L559.68 306.37L559.68 306.37L559.68 223.666L559.68 223.666L43.8 223.666z" /></clipPath><clipPath id="56"><path d="M43.8 306.37L559.68 306.37L559.68 306.37L559.68 223.666L559.68 223.666L43.8 223.666z" /></clipPath><clipPath id="57"><path d="M43.8 306.37L559.68 306.37L559.68 306.37L559.68 223.666L559.68 223.666L43.8 223.666z" /></clipPath><clipPath id="58"><path d="M43.8 306.37L559.68 306.37L559.68 306.37L559.68 223.666L559.68 223.666L43.8 223.666z" /></clipPath><clipPath id="59"><path d="M43.8 306.37L559.68 306.37L559.68 306.37L559.68 223.666L559.68 223.666L43.8 223.666z" /></clipPath><clipPath id="60"><path d="M43.8 306.37L559.68 306.37L559.68 306.37L559.68 223.666L559.68 223.666L43.8 223.666z" /></clipPath><clipPath id="61"><path d="M43.8 306.37L559.68 306.37L559.68 306.37L559.68 223.666L559.68 223.666L43.8 223.666z" /></clipPath><clipPath id="62"><path d="M43.8 306.37L559.68 306.37L559.68 306.37L559.68 223.666L559.68 223.666L43.8 223.666z" /></clipPath><clipPath id="63"><path d="M43.8 306.37L559.68 306.37L559.68 306.37L559.68 223.666L559.68 223.666L43.8 223.666z" /></clipPath><clipPath id="64"><path d="M43.8 306.37L559.68 306.37L559.68 306.37L559.68 223.666L559.68 223.666L43.8 223.666z" /></clipPath><clipPath id="65"><path d="M43.8 306.37L559.68 306.37L559.68 306.37L559.68 223.666L559.68 223.666L43.8 223.666z" /></clipPath><clipPath id="66"><path d="M43.8 306.37L559.68 306.37L559.68 306.37L559.68 223.666L559.68 223.666L43.8 223.666z" /></clipPath><clipPath id="67"><path d="M43.8 306.37L559.68 306.37L559.68 306.37L559.68 223.666L559.68 223.666L43.8 223.666z" /></clipPath><clipPath id="68"><path d="M43.8 306.37L559.68 306.37L559.68 306.37L559.68 223.666L559.68 223.666L43.8 223.666z" /></clipPath><clipPath id="69"><path d="M43.8 306.37L559.68 306.37L559.68 306.37L559.68 223.666L559.68 223.666L43.8 223.666z" /></clipPath><clipPath id="70"><path d="M43.8 306.37L559.68 306.37L559.68 306.37L559.68 223.666L559.68 223.666L43.8 223.666z" /></clipPath><clipPath id="71"><path d="M43.8 306.37L559.68 306.37L559.68 306.37L559.68 223.666L559.68 223.666L43.8 223.666z" /></clipPath><clipPath id="72"><path d="M43.8 306.37L559.68 306.37L559.68 306.37L559.68 223.666L559.68 223.666L43.8 223.666z" /></clipPath><clipPath id="73"><path d="M43.8 306.37L559.68 306.37L559.68 306.37L559.68 223.666L559.68 223.666L43.8 223.666z" /></clipPath><clipPath id="74"><path d="M31.8 325.69L43.08 325.69L43.08 325.69L43.08 306.37L43.08 306.37L31.8 306.37z" /></clipPath><clipPath id="75"><path d="M31.8 325.69L43.08 325.69L43.08 325.69L43.08 306.37L43.08 306.37L31.8 306.37z" /></clipPath><clipPath id="76"><path d="M31.8 325.69L43.08 325.69L43.08 325.69L43.08 306.37L43.08 306.37L31.8 306.37z" /></clipPath><clipPath id="77"><path d="M31.8 325.69L43.08 325.69L43.08 325.69L43.08 306.37L43.08 306.37L31.8 306.37z" /></clipPath><clipPath id="78"><path d="M43.08 325.69L127.104 325.69L127.104 325.69L127.104 306.37L127.104 306.37L43.08 306.37z" /></clipPath><clipPath id="79"><path d="M43.08 325.69L127.104 325.69L127.104 325.69L127.104 306.37L127.104 306.37L43.08 306.37z" /></clipPath><clipPath id="80"><path d="M43.08 325.69L127.104 325.69L127.104 325.69L127.104 306.37L127.104 306.37L43.08 306.37z" /></clipPath><clipPath id="81"><path d="M43.08 325.69L127.104 325.69L127.104 325.69L127.104 306.37L127.104 306.37L43.08 306.37z" /></clipPath><clipPath id="82"><path d="M127.1 325.69L559.68 325.69L559.68 325.69L559.68 306.37L559.68 306.37L127.1 306.37z" /></clipPath><clipPath id="83"><path d="M127.1 325.69L559.68 325.69L559.68 325.69L559.68 306.37L559.68 306.37L127.1 306.37z" /></clipPath><clipPath id="84"><path d="M31.8 477.51L42.36 477.51L42.36 477.51L42.36 326.41L42.36 326.41L31.8 326.41z" /></clipPath><clipPath id="85"><path d="M31.8 477.51L42.36 477.51L42.36 477.51L42.36 326.41L42.36 326.41L31.8 326.41z" /></clipPath><clipPath id="86"><path d="M43.8 477.51L559.68 477.51L559.68 477.51L559.68 326.41L559.68 326.41L43.8 326.41z" /></clipPath><clipPath id="87"><path d="M43.8 477.51L559.68 477.51L559.68 477.51L559.68 326.41L559.68 326.41L43.8 326.41z" /></clipPath><clipPath id="88"><path d="M43.8 477.51L559.68 477.51L559.68 477.51L559.68 326.41L559.68 326.41L43.8 326.41z" /></clipPath><clipPath id="89"><path d="M43.8 477.51L559.68 477.51L559.68 477.51L559.68 326.41L559.68 326.41L43.8 326.41z" /></clipPath><clipPath id="90"><path d="M43.8 477.51L559.68 477.51L559.68 477.51L559.68 326.41L559.68 326.41L43.8 326.41z" /></clipPath><clipPath id="91"><path d="M43.8 477.51L559.68 477.51L559.68 477.51L559.68 326.41L559.68 326.41L43.8 326.41z" /></clipPath><clipPath id="92"><path d="M43.8 477.51L559.68 477.51L559.68 477.51L559.68 326.41L559.68 326.41L43.8 326.41z" /></clipPath><clipPath id="93"><path d="M43.8 477.51L559.68 477.51L559.68 477.51L559.68 326.41L559.68 326.41L43.8 326.41z" /></clipPath><clipPath id="94"><path d="M43.8 477.51L559.68 477.51L559.68 477.51L559.68 326.41L559.68 326.41L43.8 326.41z" /></clipPath><clipPath id="95"><path d="M43.8 477.51L559.68 477.51L559.68 477.51L559.68 326.41L559.68 326.41L43.8 326.41z" /></clipPath><clipPath id="96"><path d="M43.8 477.51L559.68 477.51L559.68 477.51L559.68 326.41L559.68 326.41L43.8 326.41z" /></clipPath><clipPath id="97"><path d="M43.8 477.51L559.68 477.51L559.68 477.51L559.68 326.41L559.68 326.41L43.8 326.41z" /></clipPath><clipPath id="98"><path d="M43.8 477.51L559.68 477.51L559.68 477.51L559.68 326.41L559.68 326.41L43.8 326.41z" /></clipPath><clipPath id="99"><path d="M43.8 477.51L559.68 477.51L559.68 477.51L559.68 326.41L559.68 326.41L43.8 326.41z" /></clipPath><clipPath id="100"><path d="M43.8 477.51L559.68 477.51L559.68 477.51L559.68 326.41L559.68 326.41L43.8 326.41z" /></clipPath><clipPath id="101"><path d="M43.8 477.51L559.68 477.51L559.68 477.51L559.68 326.41L559.68 326.41L43.8 326.41z" /></clipPath><clipPath id="102"><path d="M43.8 477.51L559.68 477.51L559.68 477.51L559.68 326.41L559.68 326.41L43.8 326.41z" /></clipPath><clipPath id="103"><path d="M43.8 477.51L559.68 477.51L559.68 477.51L559.68 326.41L559.68 326.41L43.8 326.41z" /></clipPath><clipPath id="104"><path d="M43.8 477.51L559.68 477.51L559.68 477.51L559.68 326.41L559.68 326.41L43.8 326.41z" /></clipPath><clipPath id="105"><path d="M43.8 477.51L559.68 477.51L559.68 477.51L559.68 326.41L559.68 326.41L43.8 326.41z" /></clipPath><clipPath id="106"><path d="M43.8 477.51L559.68 477.51L559.68 477.51L559.68 326.41L559.68 326.41L43.8 326.41z" /></clipPath><clipPath id="107"><path d="M43.8 477.51L559.68 477.51L559.68 477.51L559.68 326.41L559.68 326.41L43.8 326.41z" /></clipPath><clipPath id="108"><path d="M43.8 477.51L559.68 477.51L559.68 477.51L559.68 326.41L559.68 326.41L43.8 326.41z" /></clipPath><clipPath id="109"><path d="M43.8 477.51L559.68 477.51L559.68 477.51L559.68 326.41L559.68 326.41L43.8 326.41z" /></clipPath><clipPath id="110"><path d="M43.8 477.51L559.68 477.51L559.68 477.51L559.68 326.41L559.68 326.41L43.8 326.41z" /></clipPath><clipPath id="111"><path d="M43.8 477.51L559.68 477.51L559.68 477.51L559.68 326.41L559.68 326.41L43.8 326.41z" /></clipPath><clipPath id="112"><path d="M43.8 477.51L559.68 477.51L559.68 477.51L559.68 326.41L559.68 326.41L43.8 326.41z" /></clipPath><clipPath id="113"><path d="M43.8 477.51L559.68 477.51L559.68 477.51L559.68 326.41L559.68 326.41L43.8 326.41z" /></clipPath><clipPath id="114"><path d="M43.8 477.51L559.68 477.51L559.68 477.51L559.68 326.41L559.68 326.41L43.8 326.41z" /></clipPath><clipPath id="115"><path d="M43.8 477.51L559.68 477.51L559.68 477.51L559.68 326.41L559.68 326.41L43.8 326.41z" /></clipPath><clipPath id="116"><path d="M43.8 477.51L559.68 477.51L559.68 477.51L559.68 326.41L559.68 326.41L43.8 326.41z" /></clipPath><clipPath id="117"><path d="M43.8 477.51L559.68 477.51L559.68 477.51L559.68 326.41L559.68 326.41L43.8 326.41z" /></clipPath><clipPath id="118"><path d="M43.8 477.51L559.68 477.51L559.68 477.51L559.68 326.41L559.68 326.41L43.8 326.41z" /></clipPath><clipPath id="119"><path d="M43.8 477.51L559.68 477.51L559.68 477.51L559.68 326.41L559.68 326.41L43.8 326.41z" /></clipPath><clipPath id="120"><path d="M43.8 477.51L559.68 477.51L559.68 477.51L559.68 326.41L559.68 326.41L43.8 326.41z" /></clipPath><clipPath id="121"><path d="M43.8 477.51L559.68 477.51L559.68 477.51L559.68 326.41L559.68 326.41L43.8 326.41z" /></clipPath><clipPath id="122"><path d="M43.8 477.51L559.68 477.51L559.68 477.51L559.68 326.41L559.68 326.41L43.8 326.41z" /></clipPath><clipPath id="123"><path d="M43.8 477.51L559.68 477.51L559.68 477.51L559.68 326.41L559.68 326.41L43.8 326.41z" /></clipPath><clipPath id="124"><path d="M43.8 477.51L559.68 477.51L559.68 477.51L559.68 326.41L559.68 326.41L43.8 326.41z" /></clipPath><clipPath id="125"><path d="M43.8 477.51L559.68 477.51L559.68 477.51L559.68 326.41L559.68 326.41L43.8 326.41z" /></clipPath><clipPath id="126"><path d="M43.8 477.51L559.68 477.51L559.68 477.51L559.68 326.41L559.68 326.41L43.8 326.41z" /></clipPath><clipPath id="127"><path d="M43.8 477.51L559.68 477.51L559.68 477.51L559.68 326.41L559.68 326.41L43.8 326.41z" /></clipPath><clipPath id="128"><path d="M43.8 477.51L559.68 477.51L559.68 477.51L559.68 326.41L559.68 326.41L43.8 326.41z" /></clipPath><clipPath id="129"><path d="M43.8 477.51L559.68 477.51L559.68 477.51L559.68 326.41L559.68 326.41L43.8 326.41z" /></clipPath><clipPath id="130"><path d="M43.8 477.51L559.68 477.51L559.68 477.51L559.68 326.41L559.68 326.41L43.8 326.41z" /></clipPath><clipPath id="131"><path d="M43.8 477.51L559.68 477.51L559.68 477.51L559.68 326.41L559.68 326.41L43.8 326.41z" /></clipPath><clipPath id="132"><path d="M43.8 477.51L559.68 477.51L559.68 477.51L559.68 326.41L559.68 326.41L43.8 326.41z" /></clipPath><clipPath id="133"><path d="M43.8 477.51L559.68 477.51L559.68 477.51L559.68 326.41L559.68 326.41L43.8 326.41z" /></clipPath><clipPath id="134"><path d="M43.8 477.51L559.68 477.51L559.68 477.51L559.68 326.41L559.68 326.41L43.8 326.41z" /></clipPath><clipPath id="135"><path d="M43.8 477.51L559.68 477.51L559.68 477.51L559.68 326.41L559.68 326.41L43.8 326.41z" /></clipPath><clipPath id="136"><path d="M43.8 477.51L559.68 477.51L559.68 477.51L559.68 326.41L559.68 326.41L43.8 326.41z" /></clipPath><clipPath id="137"><path d="M43.8 477.51L559.68 477.51L559.68 477.51L559.68 326.41L559.68 326.41L43.8 326.41z" /></clipPath><clipPath id="138"><path d="M43.8 477.51L559.68 477.51L559.68 477.51L559.68 326.41L559.68 326.41L43.8 326.41z" /></clipPath><clipPath id="139"><path d="M43.8 477.51L559.68 477.51L559.68 477.51L559.68 326.41L559.68 326.41L43.8 326.41z" /></clipPath><clipPath id="140"><path d="M43.8 477.51L559.68 477.51L559.68 477.51L559.68 326.41L559.68 326.41L43.8 326.41z" /></clipPath><clipPath id="141"><path d="M43.8 477.51L559.68 477.51L559.68 477.51L559.68 326.41L559.68 326.41L43.8 326.41z" /></clipPath><clipPath id="142"><path d="M43.8 477.51L559.68 477.51L559.68 477.51L559.68 326.41L559.68 326.41L43.8 326.41z" /></clipPath><clipPath id="143"><path d="M43.8 477.51L559.68 477.51L559.68 477.51L559.68 326.41L559.68 326.41L43.8 326.41z" /></clipPath><clipPath id="144"><path d="M43.8 477.51L559.68 477.51L559.68 477.51L559.68 326.41L559.68 326.41L43.8 326.41z" /></clipPath><clipPath id="145"><path d="M43.8 477.51L559.68 477.51L559.68 477.51L559.68 326.41L559.68 326.41L43.8 326.41z" /></clipPath><clipPath id="146"><path d="M43.8 477.51L559.68 477.51L559.68 477.51L559.68 326.41L559.68 326.41L43.8 326.41z" /></clipPath><clipPath id="147"><path d="M43.8 477.51L559.68 477.51L559.68 477.51L559.68 326.41L559.68 326.41L43.8 326.41z" /></clipPath><clipPath id="148"><path d="M43.8 477.51L559.68 477.51L559.68 477.51L559.68 326.41L559.68 326.41L43.8 326.41z" /></clipPath><clipPath id="149"><path d="M43.8 477.51L559.68 477.51L559.68 477.51L559.68 326.41L559.68 326.41L43.8 326.41z" /></clipPath><clipPath id="150"><path d="M43.8 477.51L559.68 477.51L559.68 477.51L559.68 326.41L559.68 326.41L43.8 326.41z" /></clipPath><clipPath id="151"><path d="M43.8 477.51L559.68 477.51L559.68 477.51L559.68 326.41L559.68 326.41L43.8 326.41z" /></clipPath><clipPath id="152"><path d="M43.8 477.51L559.68 477.51L559.68 477.51L559.68 326.41L559.68 326.41L43.8 326.41z" /></clipPath><clipPath id="153"><path d="M43.8 477.51L559.68 477.51L559.68 477.51L559.68 326.41L559.68 326.41L43.8 326.41z" /></clipPath><clipPath id="154"><path d="M43.8 477.51L559.68 477.51L559.68 477.51L559.68 326.41L559.68 326.41L43.8 326.41z" /></clipPath><clipPath id="155"><path d="M43.8 477.51L559.68 477.51L559.68 477.51L559.68 326.41L559.68 326.41L43.8 326.41z" /></clipPath><clipPath id="156"><path d="M43.8 477.51L559.68 477.51L559.68 477.51L559.68 326.41L559.68 326.41L43.8 326.41z" /></clipPath><clipPath id="157"><path d="M43.8 477.51L559.68 477.51L559.68 477.51L559.68 326.41L559.68 326.41L43.8 326.41z" /></clipPath><clipPath id="158"><path d="M43.8 477.51L559.68 477.51L559.68 477.51L559.68 326.41L559.68 326.41L43.8 326.41z" /></clipPath><clipPath id="159"><path d="M43.8 477.51L559.68 477.51L559.68 477.51L559.68 326.41L559.68 326.41L43.8 326.41z" /></clipPath><clipPath id="160"><path d="M43.8 477.51L559.68 477.51L559.68 477.51L559.68 326.41L559.68 326.41L43.8 326.41z" /></clipPath><clipPath id="161"><path d="M43.8 477.51L559.68 477.51L559.68 477.51L559.68 326.41L559.68 326.41L43.8 326.41z" /></clipPath><clipPath id="162"><path d="M43.8 477.51L559.68 477.51L559.68 477.51L559.68 326.41L559.68 326.41L43.8 326.41z" /></clipPath><clipPath id="163"><path d="M43.8 477.51L559.68 477.51L559.68 477.51L559.68 326.41L559.68 326.41L43.8 326.41z" /></clipPath><clipPath id="164"><path d="M43.8 477.51L559.68 477.51L559.68 477.51L559.68 326.41L559.68 326.41L43.8 326.41z" /></clipPath><clipPath id="165"><path d="M43.8 477.51L559.68 477.51L559.68 477.51L559.68 326.41L559.68 326.41L43.8 326.41z" /></clipPath><clipPath id="166"><path d="M43.8 477.51L559.68 477.51L559.68 477.51L559.68 326.41L559.68 326.41L43.8 326.41z" /></clipPath><clipPath id="167"><path d="M43.8 477.51L559.68 477.51L559.68 477.51L559.68 326.41L559.68 326.41L43.8 326.41z" /></clipPath><clipPath id="168"><path d="M43.8 477.51L559.68 477.51L559.68 477.51L559.68 326.41L559.68 326.41L43.8 326.41z" /></clipPath><clipPath id="169"><path d="M43.8 477.51L559.68 477.51L559.68 477.51L559.68 326.41L559.68 326.41L43.8 326.41z" /></clipPath><clipPath id="170"><path d="M43.8 477.51L559.68 477.51L559.68 477.51L559.68 326.41L559.68 326.41L43.8 326.41z" /></clipPath><clipPath id="171"><path d="M43.8 477.51L559.68 477.51L559.68 477.51L559.68 326.41L559.68 326.41L43.8 326.41z" /></clipPath><clipPath id="172"><path d="M43.8 477.51L559.68 477.51L559.68 477.51L559.68 326.41L559.68 326.41L43.8 326.41z" /></clipPath><clipPath id="173"><path d="M43.8 477.51L559.68 477.51L559.68 477.51L559.68 326.41L559.68 326.41L43.8 326.41z" /></clipPath><clipPath id="174"><path d="M43.8 477.51L559.68 477.51L559.68 477.51L559.68 326.41L559.68 326.41L43.8 326.41z" /></clipPath><clipPath id="175"><path d="M31.8 496.83L43.08 496.83L43.08 496.83L43.08 477.51L43.08 477.51L31.8 477.51z" /></clipPath><clipPath id="176"><path d="M31.8 496.83L43.08 496.83L43.08 496.83L43.08 477.51L43.08 477.51L31.8 477.51z" /></clipPath><clipPath id="177"><path d="M43.08 496.83L127.104 496.83L127.104 496.83L127.104 477.51L127.104 477.51L43.08 477.51z" /></clipPath><clipPath id="178"><path d="M43.08 496.83L127.104 496.83L127.104 496.83L127.104 477.51L127.104 477.51L43.08 477.51z" /></clipPath><clipPath id="179"><path d="M43.08 496.83L127.104 496.83L127.104 496.83L127.104 477.51L127.104 477.51L43.08 477.51z" /></clipPath><clipPath id="180"><path d="M127.1 496.83L559.68 496.83L559.68 496.83L559.68 477.51L559.68 477.51L127.1 477.51z" /></clipPath><clipPath id="181"><path d="M127.1 496.83L559.68 496.83L559.68 496.83L559.68 477.51L559.68 477.51L127.1 477.51z" /></clipPath><clipPath id="182"><path d="M31.8 601.26L42.36 601.26L42.36 601.26L42.36 497.56L42.36 497.56L31.8 497.56z" /></clipPath><clipPath id="183"><path d="M31.8 601.26L42.36 601.26L42.36 601.26L42.36 497.56L42.36 497.56L31.8 497.56z" /></clipPath><clipPath id="184"><path d="M43.8 601.26L559.68 601.26L559.68 601.26L559.68 497.56L559.68 497.56L43.8 497.56z" /></clipPath><clipPath id="185"><path d="M43.8 601.26L559.68 601.26L559.68 601.26L559.68 497.56L559.68 497.56L43.8 497.56z" /></clipPath><clipPath id="186"><path d="M43.8 601.26L559.68 601.26L559.68 601.26L559.68 497.56L559.68 497.56L43.8 497.56z" /></clipPath><clipPath id="187"><path d="M43.8 601.26L559.68 601.26L559.68 601.26L559.68 497.56L559.68 497.56L43.8 497.56z" /></clipPath><clipPath id="188"><path d="M43.8 601.26L559.68 601.26L559.68 601.26L559.68 497.56L559.68 497.56L43.8 497.56z" /></clipPath><clipPath id="189"><path d="M43.8 601.26L559.68 601.26L559.68 601.26L559.68 497.56L559.68 497.56L43.8 497.56z" /></clipPath><clipPath id="190"><path d="M43.8 601.26L559.68 601.26L559.68 601.26L559.68 497.56L559.68 497.56L43.8 497.56z" /></clipPath><clipPath id="191"><path d="M43.8 601.26L559.68 601.26L559.68 601.26L559.68 497.56L559.68 497.56L43.8 497.56z" /></clipPath><clipPath id="192"><path d="M43.8 601.26L559.68 601.26L559.68 601.26L559.68 497.56L559.68 497.56L43.8 497.56z" /></clipPath><clipPath id="193"><path d="M43.8 601.26L559.68 601.26L559.68 601.26L559.68 497.56L559.68 497.56L43.8 497.56z" /></clipPath><clipPath id="194"><path d="M43.8 601.26L559.68 601.26L559.68 601.26L559.68 497.56L559.68 497.56L43.8 497.56z" /></clipPath><clipPath id="195"><path d="M43.8 601.26L559.68 601.26L559.68 601.26L559.68 497.56L559.68 497.56L43.8 497.56z" /></clipPath><clipPath id="196"><path d="M43.8 601.26L559.68 601.26L559.68 601.26L559.68 497.56L559.68 497.56L43.8 497.56z" /></clipPath><clipPath id="197"><path d="M43.8 601.26L559.68 601.26L559.68 601.26L559.68 497.56L559.68 497.56L43.8 497.56z" /></clipPath><clipPath id="198"><path d="M43.8 601.26L559.68 601.26L559.68 601.26L559.68 497.56L559.68 497.56L43.8 497.56z" /></clipPath><clipPath id="199"><path d="M43.8 601.26L559.68 601.26L559.68 601.26L559.68 497.56L559.68 497.56L43.8 497.56z" /></clipPath><clipPath id="200"><path d="M43.8 601.26L559.68 601.26L559.68 601.26L559.68 497.56L559.68 497.56L43.8 497.56z" /></clipPath><clipPath id="201"><path d="M43.8 601.26L559.68 601.26L559.68 601.26L559.68 497.56L559.68 497.56L43.8 497.56z" /></clipPath><clipPath id="202"><path d="M43.8 601.26L559.68 601.26L559.68 601.26L559.68 497.56L559.68 497.56L43.8 497.56z" /></clipPath><clipPath id="203"><path d="M43.8 601.26L559.68 601.26L559.68 601.26L559.68 497.56L559.68 497.56L43.8 497.56z" /></clipPath><clipPath id="204"><path d="M43.8 601.26L559.68 601.26L559.68 601.26L559.68 497.56L559.68 497.56L43.8 497.56z" /></clipPath><clipPath id="205"><path d="M43.8 601.26L559.68 601.26L559.68 601.26L559.68 497.56L559.68 497.56L43.8 497.56z" /></clipPath><clipPath id="206"><path d="M43.8 601.26L559.68 601.26L559.68 601.26L559.68 497.56L559.68 497.56L43.8 497.56z" /></clipPath><clipPath id="207"><path d="M43.8 601.26L559.68 601.26L559.68 601.26L559.68 497.56L559.68 497.56L43.8 497.56z" /></clipPath><clipPath id="208"><path d="M43.8 601.26L559.68 601.26L559.68 601.26L559.68 497.56L559.68 497.56L43.8 497.56z" /></clipPath><clipPath id="209"><path d="M43.8 601.26L559.68 601.26L559.68 601.26L559.68 497.56L559.68 497.56L43.8 497.56z" /></clipPath><clipPath id="210"><path d="M43.8 601.26L559.68 601.26L559.68 601.26L559.68 497.56L559.68 497.56L43.8 497.56z" /></clipPath><clipPath id="211"><path d="M43.8 601.26L559.68 601.26L559.68 601.26L559.68 497.56L559.68 497.56L43.8 497.56z" /></clipPath><clipPath id="212"><path d="M43.8 601.26L559.68 601.26L559.68 601.26L559.68 497.56L559.68 497.56L43.8 497.56z" /></clipPath><clipPath id="213"><path d="M31.8 620.46L43.08 620.46L43.08 620.46L43.08 601.26L43.08 601.26L31.8 601.26z" /></clipPath><clipPath id="214"><path d="M31.8 620.46L43.08 620.46L43.08 620.46L43.08 601.26L43.08 601.26L31.8 601.26z" /></clipPath><clipPath id="215"><path d="M43.08 620.46L127.104 620.46L127.104 620.46L127.104 601.26L127.104 601.26L43.08 601.26z" /></clipPath><clipPath id="216"><path d="M43.08 620.46L127.104 620.46L127.104 620.46L127.104 601.26L127.104 601.26L43.08 601.26z" /></clipPath><clipPath id="217"><path d="M43.08 620.46L127.104 620.46L127.104 620.46L127.104 601.26L127.104 601.26L43.08 601.26z" /></clipPath><clipPath id="218"><path d="M127.1 620.46L559.68 620.46L559.68 620.46L559.68 601.26L559.68 601.26L127.1 601.26z" /></clipPath><clipPath id="219"><path d="M127.1 620.46L559.68 620.46L559.68 620.46L559.68 601.26L559.68 601.26L127.1 601.26z" /></clipPath><clipPath id="220"><path d="M31.8 696.78L42.36 696.78L42.36 696.78L42.36 621.18L42.36 621.18L31.8 621.18z" /></clipPath><clipPath id="221"><path d="M31.8 696.78L42.36 696.78L42.36 696.78L42.36 621.18L42.36 621.18L31.8 621.18z" /></clipPath><clipPath id="222"><path d="M43.8 696.78L559.68 696.78L559.68 696.78L559.68 621.18L559.68 621.18L43.8 621.18z" /></clipPath><clipPath id="223"><path d="M43.8 696.78L559.68 696.78L559.68 696.78L559.68 621.18L559.68 621.18L43.8 621.18z" /></clipPath><clipPath id="224"><path d="M43.8 696.78L559.68 696.78L559.68 696.78L559.68 621.18L559.68 621.18L43.8 621.18z" /></clipPath><clipPath id="225"><path d="M43.8 696.78L559.68 696.78L559.68 696.78L559.68 621.18L559.68 621.18L43.8 621.18z" /></clipPath><clipPath id="226"><path d="M43.8 696.78L559.68 696.78L559.68 696.78L559.68 621.18L559.68 621.18L43.8 621.18z" /></clipPath><clipPath id="227"><path d="M43.8 696.78L559.68 696.78L559.68 696.78L559.68 621.18L559.68 621.18L43.8 621.18z" /></clipPath><clipPath id="228"><path d="M43.8 696.78L559.68 696.78L559.68 696.78L559.68 621.18L559.68 621.18L43.8 621.18z" /></clipPath><clipPath id="229"><path d="M43.8 696.78L559.68 696.78L559.68 696.78L559.68 621.18L559.68 621.18L43.8 621.18z" /></clipPath><clipPath id="230"><path d="M43.8 696.78L559.68 696.78L559.68 696.78L559.68 621.18L559.68 621.18L43.8 621.18z" /></clipPath><clipPath id="231"><path d="M43.8 696.78L559.68 696.78L559.68 696.78L559.68 621.18L559.68 621.18L43.8 621.18z" /></clipPath><clipPath id="232"><path d="M43.8 696.78L559.68 696.78L559.68 696.78L559.68 621.18L559.68 621.18L43.8 621.18z" /></clipPath><clipPath id="233"><path d="M43.8 696.78L559.68 696.78L559.68 696.78L559.68 621.18L559.68 621.18L43.8 621.18z" /></clipPath><clipPath id="234"><path d="M43.8 696.78L559.68 696.78L559.68 696.78L559.68 621.18L559.68 621.18L43.8 621.18z" /></clipPath><clipPath id="235"><path d="M43.8 696.78L559.68 696.78L559.68 696.78L559.68 621.18L559.68 621.18L43.8 621.18z" /></clipPath><clipPath id="236"><path d="M43.8 696.78L559.68 696.78L559.68 696.78L559.68 621.18L559.68 621.18L43.8 621.18z" /></clipPath><clipPath id="237"><path d="M43.8 696.78L559.68 696.78L559.68 696.78L559.68 621.18L559.68 621.18L43.8 621.18z" /></clipPath><clipPath id="238"><path d="M43.8 696.78L559.68 696.78L559.68 696.78L559.68 621.18L559.68 621.18L43.8 621.18z" /></clipPath><clipPath id="239"><path d="M43.8 696.78L559.68 696.78L559.68 696.78L559.68 621.18L559.68 621.18L43.8 621.18z" /></clipPath><clipPath id="240"><path d="M43.8 696.78L559.68 696.78L559.68 696.78L559.68 621.18L559.68 621.18L43.8 621.18z" /></clipPath><clipPath id="241"><path d="M43.8 696.78L559.68 696.78L559.68 696.78L559.68 621.18L559.68 621.18L43.8 621.18z" /></clipPath><clipPath id="242"><path d="M43.8 696.78L559.68 696.78L559.68 696.78L559.68 621.18L559.68 621.18L43.8 621.18z" /></clipPath><clipPath id="243"><path d="M43.8 696.78L559.68 696.78L559.68 696.78L559.68 621.18L559.68 621.18L43.8 621.18z" /></clipPath><clipPath id="244"><path d="M8.875E-06 842L595.56 842L595.56 842L595.56 -0.03997803L595.56 -0.03997803L8.875E-06 -0.03997803z" /></clipPath><clipPath id="245"><path d="M452 203.51L557.8 203.51L557.8 203.51L557.8 65.76001L557.8 65.76001L452 65.76001z" /></clipPath></defs><g transform="matrix(1.333333 0 0 1.333333 0 0)"><g><g clip-path="url(#1)"><path transform="matrix(1 0 0 -1 0 842)" d="M83.05 787.94L27.7 818.04L27.7 818.04L27.7 842.04L27.7 842.04L138.35 842.04L138.35 842.04L138.35 818.04L138.35 818.04L83.05 787.94z" stroke="none" fill="#5568AF" fill-rule="evenodd" /><g clip-path="url(#2)"><g clip-path="url(#3)"></g><g clip-path="url(#4)"></g><g clip-path="url(#5)"></g><g clip-path="url(#6)"></g><g clip-path="url(#7)"></g></g><g clip-path="url(#8)"><g clip-path="url(#9)"></g></g><g clip-path="url(#10)"><g clip-path="url(#11)"></g><g clip-path="url(#12)"></g><g clip-path="url(#13)"></g><g clip-path="url(#14)"></g><g clip-path="url(#15)"></g></g><g clip-path="url(#16)"><g clip-path="url(#17)"></g><g clip-path="url(#18)"></g></g><g clip-path="url(#19)"><g clip-path="url(#20)"></g><g clip-path="url(#21)"></g><g clip-path="url(#22)"></g><g clip-path="url(#23)"></g></g><path transform="matrix(1 0 0 -1 0 842)" d="M33.6 719.5L190.73 719.5L190.73 719.5L190.73 720.22L190.73 720.22L33.6 720.22z" stroke="none" fill="#5568AF" fill-rule="evenodd" /><path transform="matrix(1 0 0 -1 0 842)" d="M190.73 719.5L191.45 719.5L191.45 719.5L191.45 720.22L191.45 720.22L190.73 720.22z" stroke="none" fill="#5568AF" fill-rule="evenodd" /><path transform="matrix(1 0 0 -1 0 842)" d="M191.45 719.5L266.45 719.5L266.45 719.5L266.45 720.22L266.45 720.22L191.45 720.22z" stroke="none" fill="#5568AF" fill-rule="evenodd" /><path transform="matrix(1 0 0 -1 0 842)" d="M266.45 719.5L267.17 719.5L267.17 719.5L267.17 720.22L267.17 720.22L266.45 720.22z" stroke="none" fill="#5568AF" fill-rule="evenodd" /><path transform="matrix(1 0 0 -1 0 842)" d="M267.17 719.5L430.78 719.5L430.78 719.5L430.78 720.22L430.78 720.22L267.17 720.22z" stroke="none" fill="#5568AF" fill-rule="evenodd" /><g clip-path="url(#24)"><g clip-path="url(#25)"></g></g><g clip-path="url(#26)"><g clip-path="url(#27)"></g></g><g clip-path="url(#28)"><g clip-path="url(#29)"></g></g><path transform="matrix(1 0 0 -1 0 842)" d="M33.6 698.62L190.73 698.62L190.73 698.62L190.73 699.34L190.73 699.34L33.6 699.34z" stroke="none" fill="#5568AF" fill-rule="evenodd" /><path transform="matrix(1 0 0 -1 0 842)" d="M190.73 698.62L191.45 698.62L191.45 698.62L191.45 699.34L191.45 699.34L190.73 699.34z" stroke="none" fill="#5568AF" fill-rule="evenodd" /><path transform="matrix(1 0 0 -1 0 842)" d="M191.45 698.62L266.45 698.62L266.45 698.62L266.45 699.34L266.45 699.34L191.45 699.34z" stroke="none" fill="#5568AF" fill-rule="evenodd" /><path transform="matrix(1 0 0 -1 0 842)" d="M266.45 698.62L267.17 698.62L267.17 698.62L267.17 699.34L267.17 699.34L266.45 699.34z" stroke="none" fill="#5568AF" fill-rule="evenodd" /><path transform="matrix(1 0 0 -1 0 842)" d="M267.17 698.62L430.78 698.62L430.78 698.62L430.78 699.34L430.78 699.34L267.17 699.34z" stroke="none" fill="#5568AF" fill-rule="evenodd" /><g clip-path="url(#30)"></g><path transform="matrix(1 0 0 -1 0 842)" d="M31.8 619.06L43.08 619.06L43.08 619.06L43.08 638.5L43.08 638.5L31.8 638.5z" stroke="none" fill="#5568AF" fill-rule="evenodd" /><g clip-path="url(#31)"><path transform="matrix(1 0 0 -1 0 842)" d="M31.8 624.7L43.08 624.7L43.08 624.7L43.08 638.5L43.08 638.5L31.8 638.5z" stroke="none" fill="#5568AF" fill-rule="evenodd" /><g clip-path="url(#32)"></g></g><path transform="matrix(1 0 0 -1 0 842)" d="M43.08 619.06L127.104 619.06L127.104 619.06L127.104 638.5L127.104 638.5L43.08 638.5z" stroke="none" fill="#5568AF" fill-rule="evenodd" /><g clip-path="url(#33)"><path transform="matrix(1 0 0 -1 0 842)" d="M43.08 620.14L127.104 620.14L127.104 620.14L127.104 638.5L127.104 638.5L43.08 638.5z" stroke="none" fill="#5568AF" fill-rule="evenodd" /><g clip-path="url(#34)"></g><g clip-path="url(#35)"></g></g><g clip-path="url(#36)"><g clip-path="url(#37)"></g></g><g clip-path="url(#38)"><g clip-path="url(#39)"></g></g><g clip-path="url(#40)"><g clip-path="url(#41)"></g><g clip-path="url(#42)"></g><g clip-path="url(#43)"></g><g clip-path="url(#44)"></g><g clip-path="url(#45)"></g><g clip-path="url(#46)"></g><g clip-path="url(#47)"></g><g clip-path="url(#48)"></g><g clip-path="url(#49)"></g><g clip-path="url(#50)"></g><g clip-path="url(#51)"></g><g clip-path="url(#52)"></g><g clip-path="url(#53)"></g><g clip-path="url(#54)"></g><g clip-path="url(#55)"></g><g clip-path="url(#56)"></g><g clip-path="url(#57)"></g><g clip-path="url(#58)"></g><g clip-path="url(#59)"></g><g clip-path="url(#60)"></g><g clip-path="url(#61)"></g><g clip-path="url(#62)"></g><g clip-path="url(#63)"></g><g clip-path="url(#64)"></g><g clip-path="url(#65)"></g><g clip-path="url(#66)"></g><g clip-path="url(#67)"></g><g clip-path="url(#68)"></g><g clip-path="url(#69)"></g><g clip-path="url(#70)"></g><g clip-path="url(#71)"></g><g clip-path="url(#72)"></g><g clip-path="url(#73)"></g></g><path transform="matrix(1 0 0 -1 0 842)" d="M31.8 618.34L42.48 618.34L42.48 618.34L42.48 619.06L42.48 619.06L31.8 619.06z" stroke="none" fill="#5568AF" fill-rule="evenodd" /><path transform="matrix(1 0 0 -1 0 842)" d="M42.48 618.34L43.2 618.34L43.2 618.34L43.2 619.06L43.2 619.06L42.48 619.06z" stroke="none" fill="#5568AF" fill-rule="evenodd" /><path transform="matrix(1 0 0 -1 0 842)" d="M43.2 618.34L43.92 618.34L43.92 618.34L43.92 619.06L43.92 619.06L43.2 619.06z" stroke="none" fill="#5568AF" fill-rule="evenodd" /><path transform="matrix(1 0 0 -1 0 842)" d="M43.92 618.34L44.64 618.34L44.64 618.34L44.64 619.06L44.64 619.06L43.92 619.06z" stroke="none" fill="#5568AF" fill-rule="evenodd" /><path transform="matrix(1 0 0 -1 0 842)" d="M44.64 618.34L127.104 618.34L127.104 618.34L127.104 619.06L127.104 619.06L44.64 619.06z" stroke="none" fill="#5568AF" fill-rule="evenodd" /><path transform="matrix(1 0 0 -1 0 842)" d="M127.1 618.34L127.82 618.34L127.82 618.34L127.82 619.06L127.82 619.06L127.1 619.06z" stroke="none" fill="#5568AF" fill-rule="evenodd" /><path transform="matrix(1 0 0 -1 0 842)" d="M127.82 618.34L559.68 618.34L559.68 618.34L559.68 619.06L559.68 619.06L127.82 619.06z" stroke="none" fill="#5568AF" fill-rule="evenodd" /><path transform="matrix(1 0 0 -1 0 842)" d="M42.48 535.63L43.92 535.63L43.92 535.63L43.92 618.334L43.92 618.334L42.48 618.334z" stroke="none" fill="#5568AF" fill-rule="evenodd" /><path transform="matrix(1 0 0 -1 0 842)" d="M31.8 516.31L43.08 516.31L43.08 516.31L43.08 535.63L43.08 535.63L31.8 535.63z" stroke="none" fill="#5568AF" fill-rule="evenodd" /><g clip-path="url(#74)"><path transform="matrix(1 0 0 -1 0 842)" d="M31.8 521.83L43.08 521.83L43.08 521.83L43.08 535.63L43.08 535.63L31.8 535.63z" stroke="none" fill="#5568AF" fill-rule="evenodd" /><g clip-path="url(#75)"></g><g clip-path="url(#76)"></g><g clip-path="url(#77)"></g></g><path transform="matrix(1 0 0 -1 0 842)" d="M43.08 516.31L127.104 516.31L127.104 516.31L127.104 535.63L127.104 535.63L43.08 535.63z" stroke="none" fill="#5568AF" fill-rule="evenodd" /><g clip-path="url(#78)"><path transform="matrix(1 0 0 -1 0 842)" d="M43.08 517.39L127.104 517.39L127.104 517.39L127.104 535.63L127.104 535.63L43.08 535.63z" stroke="none" fill="#5568AF" fill-rule="evenodd" /><g clip-path="url(#79)"></g><g clip-path="url(#80)"></g><g clip-path="url(#81)"></g></g><g clip-path="url(#82)"><g clip-path="url(#83)"></g></g><g clip-path="url(#84)"><g clip-path="url(#85)"></g></g><g clip-path="url(#86)"><g clip-path="url(#87)"></g><g clip-path="url(#88)"></g><g clip-path="url(#89)"></g><g clip-path="url(#90)"></g><g clip-path="url(#91)"></g><g clip-path="url(#92)"></g><g clip-path="url(#93)"></g><g clip-path="url(#94)"></g><g clip-path="url(#95)"></g><g clip-path="url(#96)"></g><g clip-path="url(#97)"></g><g clip-path="url(#98)"></g><g clip-path="url(#99)"></g><g clip-path="url(#100)"></g><g clip-path="url(#101)"></g><g clip-path="url(#102)"></g><g clip-path="url(#103)"></g><g clip-path="url(#104)"></g><g clip-path="url(#105)"></g><g clip-path="url(#106)"></g><g clip-path="url(#107)"></g><g clip-path="url(#108)"></g><g clip-path="url(#109)"></g><g clip-path="url(#110)"></g><g clip-path="url(#111)"></g><g clip-path="url(#112)"></g><g clip-path="url(#113)"></g><g clip-path="url(#114)"></g><g clip-path="url(#115)"></g><g clip-path="url(#116)"></g><g clip-path="url(#117)"></g><g clip-path="url(#118)"></g><g clip-path="url(#119)"></g><g clip-path="url(#120)"></g><g clip-path="url(#121)"></g><g clip-path="url(#122)"></g><g clip-path="url(#123)"></g><g clip-path="url(#124)"></g><g clip-path="url(#125)"></g><g clip-path="url(#126)"></g><g clip-path="url(#127)"></g><g clip-path="url(#128)"></g><g clip-path="url(#129)"></g><g clip-path="url(#130)"></g><g clip-path="url(#131)"></g><g clip-path="url(#132)"></g><g clip-path="url(#133)"></g><g clip-path="url(#134)"></g><g clip-path="url(#135)"></g><g clip-path="url(#136)"></g><g clip-path="url(#137)"></g><g clip-path="url(#138)"></g><g clip-path="url(#139)"></g><g clip-path="url(#140)"></g><g clip-path="url(#141)"></g><g clip-path="url(#142)"></g><g clip-path="url(#143)"></g><g clip-path="url(#144)"></g><g clip-path="url(#145)"></g><g clip-path="url(#146)"></g><g clip-path="url(#147)"></g><g clip-path="url(#148)"></g><g clip-path="url(#149)"></g><g clip-path="url(#150)"></g><g clip-path="url(#151)"></g><g clip-path="url(#152)"></g><g clip-path="url(#153)"></g><g clip-path="url(#154)"></g><g clip-path="url(#155)"></g><g clip-path="url(#156)"></g><g clip-path="url(#157)"></g><g clip-path="url(#158)"></g><g clip-path="url(#159)"></g><g clip-path="url(#160)"></g><g clip-path="url(#161)"></g><g clip-path="url(#162)"></g><g clip-path="url(#163)"></g><g clip-path="url(#164)"></g><g clip-path="url(#165)"></g><g clip-path="url(#166)"></g><g clip-path="url(#167)"></g><g clip-path="url(#168)"></g><g clip-path="url(#169)"></g><g clip-path="url(#170)"></g><g clip-path="url(#171)"></g><g clip-path="url(#172)"></g><g clip-path="url(#173)"></g><g clip-path="url(#174)"></g></g><path transform="matrix(1 0 0 -1 0 842)" d="M31.8 515.59L42.48 515.59L42.48 515.59L42.48 516.31L42.48 516.31L31.8 516.31z" stroke="none" fill="#5568AF" fill-rule="evenodd" /><path transform="matrix(1 0 0 -1 0 842)" d="M42.48 515.59L43.2 515.59L43.2 515.59L43.2 516.31L43.2 516.31L42.48 516.31z" stroke="none" fill="#5568AF" fill-rule="evenodd" /><path transform="matrix(1 0 0 -1 0 842)" d="M43.2 515.59L43.92 515.59L43.92 515.59L43.92 516.31L43.92 516.31L43.2 516.31z" stroke="none" fill="#5568AF" fill-rule="evenodd" /><path transform="matrix(1 0 0 -1 0 842)" d="M43.92 515.59L44.64 515.59L44.64 515.59L44.64 516.31L44.64 516.31L43.92 516.31z" stroke="none" fill="#5568AF" fill-rule="evenodd" /><path transform="matrix(1 0 0 -1 0 842)" d="M44.64 515.59L127.104 515.59L127.104 515.59L127.104 516.31L127.104 516.31L44.64 516.31z" stroke="none" fill="#5568AF" fill-rule="evenodd" /><path transform="matrix(1 0 0 -1 0 842)" d="M127.1 515.59L127.82 515.59L127.82 515.59L127.82 516.31L127.82 516.31L127.1 516.31z" stroke="none" fill="#5568AF" fill-rule="evenodd" /><path transform="matrix(1 0 0 -1 0 842)" d="M127.82 515.59L559.68 515.59L559.68 515.59L559.68 516.31L559.68 516.31L127.82 516.31z" stroke="none" fill="#5568AF" fill-rule="evenodd" /><path transform="matrix(1 0 0 -1 0 842)" d="M42.48 364.49L43.92 364.49L43.92 364.49L43.92 515.59L43.92 515.59L42.48 515.59z" stroke="none" fill="#5568AF" fill-rule="evenodd" /><path transform="matrix(1 0 0 -1 0 842)" d="M31.8 345.17L43.08 345.17L43.08 345.17L43.08 364.49L43.08 364.49L31.8 364.49z" stroke="none" fill="#5568AF" fill-rule="evenodd" /><g clip-path="url(#175)"><path transform="matrix(1 0 0 -1 0 842)" d="M31.8 350.69L43.08 350.69L43.08 350.69L43.08 364.49L43.08 364.49L31.8 364.49z" stroke="none" fill="#5568AF" fill-rule="evenodd" /><g clip-path="url(#176)"></g></g><path transform="matrix(1 0 0 -1 0 842)" d="M43.08 345.17L127.104 345.17L127.104 345.17L127.104 364.49L127.104 364.49L43.08 364.49z" stroke="none" fill="#5568AF" fill-rule="evenodd" /><g clip-path="url(#177)"><path transform="matrix(1 0 0 -1 0 842)" d="M43.08 346.13L127.104 346.13L127.104 346.13L127.104 364.49L127.104 364.49L43.08 364.49z" stroke="none" fill="#5568AF" fill-rule="evenodd" /><g clip-path="url(#178)"></g><g clip-path="url(#179)"></g></g><g clip-path="url(#180)"><g clip-path="url(#181)"></g></g><g clip-path="url(#182)"><g clip-path="url(#183)"></g></g><g clip-path="url(#184)"><g clip-path="url(#185)"></g><g clip-path="url(#186)"></g><g clip-path="url(#187)"></g><g clip-path="url(#188)"></g><g clip-path="url(#189)"></g><g clip-path="url(#190)"></g><g clip-path="url(#191)"></g><g clip-path="url(#192)"></g><g clip-path="url(#193)"></g><g clip-path="url(#194)"></g><g clip-path="url(#195)"></g><g clip-path="url(#196)"></g><g clip-path="url(#197)"></g><g clip-path="url(#198)"></g><g clip-path="url(#199)"></g><g clip-path="url(#200)"></g><g clip-path="url(#201)"></g><g clip-path="url(#202)"></g><g clip-path="url(#203)"></g><g clip-path="url(#204)"></g><g clip-path="url(#205)"></g><g clip-path="url(#206)"></g><g clip-path="url(#207)"></g><g clip-path="url(#208)"></g><g clip-path="url(#209)"></g><g clip-path="url(#210)"></g><g clip-path="url(#211)"></g><g clip-path="url(#212)"></g></g><path transform="matrix(1 0 0 -1 0 842)" d="M31.8 344.45L42.48 344.45L42.48 344.45L42.48 345.17L42.48 345.17L31.8 345.17z" stroke="none" fill="#5568AF" fill-rule="evenodd" /><path transform="matrix(1 0 0 -1 0 842)" d="M42.48 344.45L43.2 344.45L43.2 344.45L43.2 345.17L43.2 345.17L42.48 345.17z" stroke="none" fill="#5568AF" fill-rule="evenodd" /><path transform="matrix(1 0 0 -1 0 842)" d="M43.2 344.45L43.92 344.45L43.92 344.45L43.92 345.17L43.92 345.17L43.2 345.17z" stroke="none" fill="#5568AF" fill-rule="evenodd" /><path transform="matrix(1 0 0 -1 0 842)" d="M43.92 344.45L44.64 344.45L44.64 344.45L44.64 345.17L44.64 345.17L43.92 345.17z" stroke="none" fill="#5568AF" fill-rule="evenodd" /><path transform="matrix(1 0 0 -1 0 842)" d="M44.64 344.45L127.104 344.45L127.104 344.45L127.104 345.17L127.104 345.17L44.64 345.17z" stroke="none" fill="#5568AF" fill-rule="evenodd" /><path transform="matrix(1 0 0 -1 0 842)" d="M127.1 344.45L127.82 344.45L127.82 344.45L127.82 345.17L127.82 345.17L127.1 345.17z" stroke="none" fill="#5568AF" fill-rule="evenodd" /><path transform="matrix(1 0 0 -1 0 842)" d="M127.82 344.45L559.68 344.45L559.68 344.45L559.68 345.17L559.68 345.17L127.82 345.17z" stroke="none" fill="#5568AF" fill-rule="evenodd" /><path transform="matrix(1 0 0 -1 0 842)" d="M42.48 240.74L43.92 240.74L43.92 240.74L43.92 344.44L43.92 344.44L42.48 344.44z" stroke="none" fill="#5568AF" fill-rule="evenodd" /><path transform="matrix(1 0 0 -1 0 842)" d="M31.8 221.54L43.08 221.54L43.08 221.54L43.08 240.74L43.08 240.74L31.8 240.74z" stroke="none" fill="#5568AF" fill-rule="evenodd" /><g clip-path="url(#213)"><path transform="matrix(1 0 0 -1 0 842)" d="M31.8 226.94L43.08 226.94L43.08 226.94L43.08 240.74L43.08 240.74L31.8 240.74z" stroke="none" fill="#5568AF" fill-rule="evenodd" /><g clip-path="url(#214)"></g></g><path transform="matrix(1 0 0 -1 0 842)" d="M43.08 221.54L127.104 221.54L127.104 221.54L127.104 240.74L127.104 240.74L43.08 240.74z" stroke="none" fill="#5568AF" fill-rule="evenodd" /><g clip-path="url(#215)"><path transform="matrix(1 0 0 -1 0 842)" d="M43.08 222.5L127.104 222.5L127.104 222.5L127.104 240.74L127.104 240.74L43.08 240.74z" stroke="none" fill="#5568AF" fill-rule="evenodd" /><g clip-path="url(#216)"></g><g clip-path="url(#217)"></g></g><g clip-path="url(#218)"><g clip-path="url(#219)"></g></g><g clip-path="url(#220)"><g clip-path="url(#221)"></g></g><g clip-path="url(#222)"><g clip-path="url(#223)"></g><g clip-path="url(#224)"></g><g clip-path="url(#225)"></g><g clip-path="url(#226)"></g><g clip-path="url(#227)"></g><g clip-path="url(#228)"></g><g clip-path="url(#229)"></g><g clip-path="url(#230)"></g><g clip-path="url(#231)"></g><g clip-path="url(#232)"></g><g clip-path="url(#233)"></g><g clip-path="url(#234)"></g><g clip-path="url(#235)"></g><g clip-path="url(#236)"></g><g clip-path="url(#237)"></g><g clip-path="url(#238)"></g><g clip-path="url(#239)"></g><g clip-path="url(#240)"></g><g clip-path="url(#241)"></g><g clip-path="url(#242)"></g><g clip-path="url(#243)"></g></g><path transform="matrix(1 0 0 -1 0 842)" d="M31.8 220.82L42.48 220.82L42.48 220.82L42.48 221.54L42.48 221.54L31.8 221.54z" stroke="none" fill="#5568AF" fill-rule="evenodd" /><path transform="matrix(1 0 0 -1 0 842)" d="M42.48 220.82L43.2 220.82L43.2 220.82L43.2 221.54L43.2 221.54L42.48 221.54z" stroke="none" fill="#5568AF" fill-rule="evenodd" /><path transform="matrix(1 0 0 -1 0 842)" d="M43.2 220.82L43.92 220.82L43.92 220.82L43.92 221.54L43.92 221.54L43.2 221.54z" stroke="none" fill="#5568AF" fill-rule="evenodd" /><path transform="matrix(1 0 0 -1 0 842)" d="M43.92 220.82L44.64 220.82L44.64 220.82L44.64 221.54L44.64 221.54L43.92 221.54z" stroke="none" fill="#5568AF" fill-rule="evenodd" /><path transform="matrix(1 0 0 -1 0 842)" d="M44.64 220.82L127.104 220.82L127.104 220.82L127.104 221.54L127.104 221.54L44.64 221.54z" stroke="none" fill="#5568AF" fill-rule="evenodd" /><path transform="matrix(1 0 0 -1 0 842)" d="M127.1 220.82L127.82 220.82L127.82 220.82L127.82 221.54L127.82 221.54L127.1 221.54z" stroke="none" fill="#5568AF" fill-rule="evenodd" /><path transform="matrix(1 0 0 -1 0 842)" d="M127.82 220.82L559.68 220.82L559.68 220.82L559.68 221.54L559.68 221.54L127.82 221.54z" stroke="none" fill="#5568AF" fill-rule="evenodd" /><path transform="matrix(1 0 0 -1 0 842)" d="M42.48 145.22L43.92 145.22L43.92 145.22L43.92 220.82L43.92 220.82L42.48 220.82z" stroke="none" fill="#5568AF" fill-rule="evenodd" /><g clip-path="url(#244)"></g><path transform="matrix(1 0 0 -1 0 842)" d="M43.2 214.14L31.8 220.14L31.8 220.14L43.2 220.14L43.2 220.14L43.2 214.14z" stroke="none" fill="#133E6A" fill-rule="evenodd" /><path transform="matrix(1 0 0 -1 0 842)" d="M43.2 337.74L31.8 343.74L31.8 343.74L43.2 343.74L43.2 343.74L43.2 337.74z" stroke="none" fill="#133E6A" fill-rule="evenodd" /><path transform="matrix(1 0 0 -1 0 842)" d="M43.2 508.89L31.8 514.89L31.8 514.89L43.2 514.89L43.2 514.89L43.2 508.89z" stroke="none" fill="#133E6A" fill-rule="evenodd" /><path transform="matrix(1 0 0 -1 0 842)" d="M43.1 611.64L31.8 617.64L31.8 617.64L43.1 617.64L43.1 617.64L43.1 611.64z" stroke="none" fill="#133E6A" fill-rule="evenodd" /><g clip-path="url(#245)"><g transform="matrix(0.7503546 0 0 0.7486413 452 65.76001)"><g transform="matrix(1 0 0 1 0 0)"><image x="0" y="0" xlink:href="img_01.png" width="141" height="184" /></g></g></g></g></g></g></svg>